# xmcd
# 
# Track frame offsets:
#     150
#     2253
#     23445
#     44484
#     74032
#     103143
#     132357
#     160069
#     189089
#     216194
#     244161
#     273802
#     301436
#     329804
# 
# Disc length: 4440
# 
# Revision: 1
# Processed by: cddbd v1.5.2PL0 Copyright (c) Steve Scherf et al.
# Submitted via: fre:ac v1.0.27
# 
DISCID=c011560e
DTITLE=Performed by Grover Gardner - The Passage of Power by Robert A. Caro
DYEAR=0
DGENRE=
TTITLE0=D26 Passage - 01
TTITLE1=D26 Passage - 02
TTITLE2=D26 Passage - 03
TTITLE3=D26 Passage - 04
TTITLE4=D26 Passage - 05
TTITLE5=D26 Passage - 06
TTITLE6=D26 Passage - 07
TTITLE7=D26 Passage - 08
TTITLE8=D26 Passage - 09
TTITLE9=D26 Passage - 10
TTITLE10=D26 Passage - 11
TTITLE11=D26 Passage - 12
TTITLE12=D26 Passage - 13
TTITLE13=D26 Passage - 14
EXTD=
EXTT0=
EXTT1=
EXTT2=
EXTT3=
EXTT4=
EXTT5=
EXTT6=
EXTT7=
EXTT8=
EXTT9=
EXTT10=
EXTT11=
EXTT12=
EXTT13=
PLAYORDER=
